<svg version="1.1" id="Layer_1" xmlns="http://www.w3.org/2000/svg" xmlns:xlink="http://www.w3.org/1999/xlink" x="0px" y="0px"
	 width="100%" viewBox="0 0 640 400" enable-background="new 0 0 640 400" xml:space="preserve">
<path fill="#000000" opacity="1.000000" stroke="none" 
	d="
M355.740479,243.931625 
	C348.925781,242.335403 344.328674,243.638992 340.276398,249.821152 
	C335.290741,257.427338 328.258423,263.182678 318.184418,263.368683 
	C307.863586,263.559296 300.830933,257.846069 295.471558,250.103073 
	C292.334473,245.570755 289.573242,242.321991 283.606293,244.203156 
	C282.398590,244.583908 280.948090,244.327194 279.628571,244.186264 
	C278.059631,244.018677 275.809387,244.336899 275.836304,241.994827 
	C275.862976,239.673721 277.134888,237.902969 279.856964,237.816040 
	C282.137268,237.743240 284.415619,237.608521 286.555695,237.507751 
	C287.389709,234.414291 285.746246,232.483978 285.045197,230.328552 
	C283.138702,224.467178 280.956146,218.592285 280.569366,212.447342 
	C280.010651,203.571991 273.052887,199.346176 268.087189,192.703918 
	C263.664551,198.551849 261.277130,204.465744 259.578217,210.696747 
	C258.359680,215.165985 258.428162,215.184647 253.433243,215.286377 
	C252.267883,212.097885 253.862671,209.201950 254.629715,206.264847 
	C256.115448,200.575897 258.736359,195.338470 261.781342,190.366867 
	C263.390167,187.740036 263.327576,185.789764 261.736511,183.131317 
	C256.644836,174.623993 252.779282,165.602112 252.699020,155.447968 
	C252.581726,140.607803 262.644287,129.712830 277.505035,129.905075 
	C286.185730,130.017380 293.578094,129.449677 297.574432,120.456444 
	C297.950043,119.611168 298.813995,118.879875 299.937927,118.821220 
	C302.834869,122.300262 302.834869,122.300262 297.634064,131.160400 
	C302.252106,132.958099 307.085205,134.215454 311.253296,136.623764 
	C316.201935,139.483109 320.343201,139.004608 325.128937,136.425110 
	C329.159760,134.252518 333.687439,133.001755 337.973572,131.351257 
	C337.504120,126.909279 330.225189,124.224380 335.502808,118.736046 
	C338.563934,119.743416 340.283600,122.367241 341.556366,124.881889 
	C343.717133,129.150879 346.853851,130.131561 351.307526,129.776184 
	C355.757507,129.421066 360.255981,129.456894 364.701141,130.652679 
	C377.796204,134.175369 385.321045,145.971466 382.919189,159.278961 
	C381.420532,167.582062 378.519562,175.340561 374.054230,182.458099 
	C372.317169,185.226868 372.350586,187.411377 374.036438,190.220779 
	C377.557434,196.088516 380.277649,202.354660 381.827454,209.078094 
	C382.242493,210.878571 382.607239,212.642227 381.990326,214.681656 
	C378.254364,216.066116 376.507446,214.212341 375.773529,210.758743 
	C374.410431,204.344711 371.562439,198.593155 367.973053,192.005112 
	C362.775208,198.806305 355.945282,203.167480 355.153381,212.143600 
	C354.541138,219.083313 352.364624,225.841446 349.648224,232.300262 
	C347.936615,236.369888 349.142059,237.913055 353.342560,237.677460 
	C356.842804,237.481155 360.236328,237.465469 360.217316,242.403412 
	C359.149841,243.772400 357.634766,243.828873 355.740479,243.931625 
M286.600281,169.300629 
	C284.892487,170.877930 284.288239,172.852066 284.302399,175.142578 
	C284.351746,183.135391 284.366638,191.128754 284.325867,199.121567 
	C284.313904,201.466949 285.178467,203.305542 286.906006,204.822296 
	C295.558990,212.419235 304.561829,219.530441 314.632446,225.208878 
	C316.700775,226.375122 318.458160,226.644943 320.643677,225.344849 
	C330.557770,219.447205 339.804382,212.672211 348.327820,204.901672 
	C349.733490,203.620178 350.474823,202.151489 350.811310,200.202545 
	C352.391296,191.051147 351.516113,181.945221 350.666382,172.823410 
	C350.533539,171.397186 349.873047,170.297684 348.866669,169.372345 
	C340.264435,161.463089 331.309875,154.038147 320.949829,148.454681 
	C318.391907,147.076096 316.317444,147.500031 313.975220,148.889542 
	C304.341522,154.604599 295.377838,161.203552 286.600281,169.300629 
M355.364807,164.026703 
	C356.800415,171.453049 363.523071,174.676880 367.400909,180.457214 
	C372.000427,173.994034 374.358429,168.370102 375.988037,160.258453 
	C379.547729,142.539642 366.955109,134.550293 352.506439,135.489090 
	C349.160858,135.706482 347.792114,137.083649 349.276794,140.704941 
	C352.238220,147.928101 354.190582,155.467300 355.364807,164.026703 
M263.858246,174.564346 
	C265.004059,176.340317 265.391632,178.639023 267.397766,179.833527 
	C276.180786,172.005798 278.701324,168.061737 279.743317,161.826874 
	C280.453857,157.575150 281.678711,153.410843 282.626862,149.196945 
	C283.563202,145.035507 285.907684,141.260223 286.237762,136.967224 
	C274.269073,132.161362 261.510101,138.721710 259.001984,150.839020 
	C257.286163,159.128586 260.397217,166.537003 263.858246,174.564346 
M299.675110,240.862473 
	C296.718567,241.775162 297.896484,243.492188 298.957672,245.021545 
	C301.528534,248.726578 304.575653,251.964523 308.370087,254.484634 
	C317.802063,260.748932 332.653015,255.425797 337.201019,241.722809 
	C326.874725,237.993301 317.007233,230.491806 305.472321,238.811417 
	C304.064453,239.826828 302.050598,240.002060 299.675110,240.862473 
M345.921417,224.456009 
	C346.789215,221.103043 347.972687,217.809113 347.924652,213.762863 
	C340.504486,219.814011 332.993378,225.099304 324.757050,230.245453 
	C326.722443,231.207458 328.025726,231.928543 329.391388,232.500870 
	C341.503876,237.577087 341.507141,237.569290 345.921417,224.456009 
M288.707458,214.507172 
	C288.081940,214.167114 286.934387,213.185974 287.169159,214.821518 
	C288.115570,221.414688 290.089661,227.734009 292.919128,233.775635 
	C293.566895,235.158737 294.591949,235.833481 296.121521,235.367462 
	C300.788513,233.945496 305.664093,233.018951 310.191559,229.877304 
	C302.644470,225.017090 295.563812,220.416794 288.707458,214.507172 
M334.762543,149.682724 
	C339.174896,153.066223 343.587250,156.449738 348.677490,160.353073 
	C347.334320,152.771957 345.412750,146.328629 342.734741,140.104599 
	C342.214172,138.894775 341.683777,137.449783 339.927368,137.944321 
	C335.100555,139.303345 330.136200,140.360092 325.397339,143.588364 
	C328.673370,145.699142 331.429474,147.474915 334.762543,149.682724 
M302.494720,140.049850 
	C300.590088,139.460052 298.697235,138.827667 296.776611,138.295578 
	C295.515259,137.946121 294.038361,137.368423 293.244751,138.986237 
	C290.200623,145.192230 288.042572,151.652740 287.176361,159.910858 
	C291.780548,156.389343 295.240601,153.625275 298.825623,151.034073 
	C302.383850,148.462265 306.067902,146.064468 310.302032,143.177689 
	C307.459076,142.021240 305.332123,141.156052 302.494720,140.049850 
M357.329224,189.078125 
	C357.568573,190.571045 356.719269,192.293182 358.102386,193.671921 
	C364.991882,186.778778 364.950836,185.279221 357.328644,180.072906 
	C357.328644,183.053406 357.328644,185.650589 357.329224,189.078125 
M275.950623,180.986664 
	C270.727783,187.008270 270.897980,188.457901 278.145844,193.769730 
	C276.903503,189.024124 279.541595,184.587982 275.950623,180.986664 
z"/>
<path fill="#000000" opacity="1.000000" stroke="none" 
	d="
M199.694977,309.966187 
	C199.699005,303.151855 199.676804,296.832397 199.720612,290.513397 
	C199.735382,288.383392 199.424332,285.838806 202.635559,285.755493 
	C205.481537,285.681641 208.798920,284.672852 210.017532,288.810120 
	C211.549545,294.011353 213.194305,299.179352 215.204895,305.707520 
	C217.351791,299.412811 219.265625,294.505768 220.673645,289.457642 
	C221.871597,285.162659 224.946396,285.483124 228.134384,285.734070 
	C231.614487,286.007965 231.136642,288.760620 231.152420,290.994537 
	C231.212341,299.475159 231.155960,307.956512 231.166290,316.437592 
	C231.169739,319.272003 231.037674,321.881073 227.140900,321.902252 
	C222.985748,321.924866 222.812958,319.214325 222.902008,316.148621 
	C222.978699,313.508698 222.917877,310.864807 222.301849,308.086487 
	C221.277130,311.358307 220.239929,314.626312 219.232346,317.903412 
	C218.631760,319.856812 218.064972,321.776154 215.462021,321.838226 
	C212.655502,321.905090 211.834930,319.978760 211.229218,317.783905 
	C210.276611,314.332092 209.316483,310.882324 207.389954,307.535095 
	C207.389954,311.111115 207.328339,314.688538 207.410538,318.262665 
	C207.470322,320.862671 206.137665,321.854187 203.746552,321.836609 
	C201.477341,321.819946 199.821625,321.048798 199.777267,318.441528 
	C199.731995,315.781738 199.720718,313.121368 199.694977,309.966187 
z"/>
<path fill="#000000" opacity="1.000000" stroke="none" 
	d="
M415.838074,293.112640 
	C416.329529,290.132935 414.428406,286.638977 418.723145,285.730835 
	C423.044250,284.817078 425.108093,287.072571 426.381714,290.864349 
	C427.047852,292.847534 427.653320,294.992157 429.669983,296.714325 
	C431.290283,294.386047 430.584229,291.860840 430.628143,289.548096 
	C430.679535,286.840698 431.697327,285.629791 434.481812,285.636414 
	C437.176819,285.642792 439.086273,286.235443 439.085144,289.406525 
	C439.081818,298.890289 439.104950,308.374054 439.104492,317.857819 
	C439.104370,319.857697 438.547974,321.561005 436.232361,321.839142 
	C433.846008,322.125824 431.493896,322.101105 430.265808,319.445129 
	C428.598541,315.839355 426.956604,312.221832 424.304810,308.636047 
	C424.304810,311.489990 424.249939,314.345306 424.319885,317.197540 
	C424.393219,320.187744 423.320618,321.956482 420.034271,321.937897 
	C416.673553,321.918915 415.837067,319.942383 415.846832,317.058289 
	C415.873260,309.238037 415.845947,301.417633 415.838074,293.112640 
z"/>
<path fill="#000000" opacity="1.000000" stroke="none" 
	d="
M183.730194,296.568939 
	C182.407867,293.273071 179.999390,292.844879 177.400055,293.515533 
	C174.880157,294.165619 174.393860,296.400665 174.374390,298.665436 
	C174.342926,302.324097 174.250381,305.993439 174.482651,309.639191 
	C174.634308,312.019531 176.012451,313.637024 178.656601,313.727875 
	C181.172501,313.814301 182.769730,312.882080 182.915924,310.344727 
	C181.961441,308.958984 180.611496,309.409332 179.574951,308.973846 
	C177.054565,307.914948 177.768631,305.722900 177.736313,303.816040 
	C177.703781,301.896454 178.989990,301.135315 180.639130,301.112427 
	C191.784714,300.957397 192.705841,300.000824 191.626556,311.282593 
	C190.884567,319.038696 186.922668,322.271942 179.000885,322.265503 
	C171.198013,322.259155 167.269165,318.969543 166.351486,311.242157 
	C165.684311,305.624268 165.577194,299.957306 166.526138,294.339294 
	C167.654785,287.657288 173.008804,284.167267 180.600006,285.084930 
	C188.928345,286.091644 191.775650,289.470612 191.030807,297.801483 
	C188.579376,298.372437 186.094467,299.330139 183.730194,296.568939 
z"/>
<path fill="#000000" opacity="1.000000" stroke="none" 
	d="
M312.874268,288.160248 
	C317.536285,297.654633 316.687408,307.219788 314.293488,316.581329 
	C313.130493,321.129059 306.658173,323.118591 300.101135,322.128052 
	C294.430084,321.271393 291.563995,318.670624 290.636780,313.459534 
	C289.608673,307.681519 289.689484,301.842682 290.269470,296.057007 
	C291.068695,288.084778 295.214813,284.609589 303.220917,284.996094 
	C306.525940,285.155670 309.867645,285.627228 312.874268,288.160248 
M298.500244,310.618347 
	C299.489838,313.530609 301.638367,314.368744 304.399200,313.641907 
	C306.889709,312.986237 307.564606,310.901855 307.605225,308.615723 
	C307.667084,305.136810 307.714081,301.652283 307.583984,298.177002 
	C307.481140,295.430450 306.411652,293.318756 303.173492,293.297516 
	C299.789490,293.275330 298.432617,295.250183 298.385681,298.339905 
	C298.327820,302.150208 298.384186,305.962250 298.500244,310.618347 
z"/>
<path fill="#000000" opacity="1.000000" stroke="none" 
	d="
M515.236816,308.435822 
	C515.290527,319.712189 508.184418,324.872253 498.273682,321.196381 
	C495.334686,320.106323 492.550568,318.362793 492.203003,315.180115 
	C491.859772,312.037292 495.379700,311.417755 497.079010,309.528229 
	C498.898254,310.991425 500.283875,312.443970 501.964325,313.349121 
	C503.277802,314.056641 504.954987,313.930939 505.941772,312.382080 
	C507.064301,310.620148 505.891602,309.477722 504.575623,308.713287 
	C502.139648,307.298218 499.495300,306.235382 497.091095,304.773560 
	C492.987793,302.278625 490.230865,298.867096 491.223541,293.694031 
	C492.309204,288.036224 496.589935,286.078552 501.648163,285.202942 
	C506.415344,284.377747 510.097076,286.115753 512.787231,290.059814 
	C513.752991,291.475677 514.726746,293.005493 512.857788,294.407379 
	C511.190765,295.657715 509.592285,297.524231 507.154846,295.755402 
	C505.237061,294.363647 502.596313,291.457336 501.053284,294.614777 
	C499.648285,297.489807 503.774109,297.912292 505.786224,299.002319 
	C509.757324,301.153687 513.842712,303.143524 515.236816,308.435822 
z"/>
<path fill="#000000" opacity="1.000000" stroke="none" 
	d="
M347.373718,317.084900 
	C342.308746,322.639587 334.013733,323.939850 328.065155,320.325897 
	C324.937714,318.425873 323.717712,315.396149 323.675751,311.865417 
	C323.618408,307.037811 323.619537,302.209045 323.644104,297.381042 
	C323.687164,288.923431 326.694397,285.701233 335.160431,284.971130 
	C342.447296,284.342712 347.254395,287.371887 348.416412,293.413788 
	C348.742737,295.110565 349.796661,297.382019 347.226318,298.040100 
	C345.113190,298.581085 342.212830,299.427185 340.986389,296.751770 
	C339.588104,293.701569 337.442841,292.733734 334.601898,293.528839 
	C331.355194,294.437561 331.460571,297.487549 331.393372,300.121094 
	C331.312805,303.277527 331.240448,306.469208 331.619080,309.590485 
	C331.889130,311.816864 333.188995,313.572662 335.891449,313.692566 
	C338.482239,313.807556 340.247253,312.699005 340.494873,310.188538 
	C340.895081,306.130890 343.487213,305.683929 346.517212,306.354156 
	C350.031616,307.131561 349.194031,310.070038 348.877808,312.470398 
	C348.685974,313.926392 348.019409,315.319824 347.373718,317.084900 
z"/>
<path fill="#000000" opacity="1.000000" stroke="none" 
	d="
M141.309097,292.110443 
	C139.466583,296.211121 137.072678,297.773590 133.214188,294.653290 
	C131.492569,293.261047 129.461578,292.454132 127.484581,294.978119 
	C128.945023,297.909790 131.949539,298.312897 134.352875,299.546844 
	C142.540726,303.750732 144.851959,309.343811 141.434006,316.477264 
	C139.445282,320.627747 135.872879,322.110443 131.688293,322.209442 
	C127.198189,322.315674 122.873062,321.215393 120.480690,317.014893 
	C117.903435,312.489746 122.411583,311.659485 124.742500,309.469055 
	C126.128418,310.772461 127.173523,312.098969 128.522491,312.935364 
	C130.140427,313.938538 132.170441,314.362427 133.298660,312.266724 
	C134.296371,310.413483 133.053650,309.134918 131.410645,308.302032 
	C129.631058,307.399902 127.811897,306.574432 126.045830,305.647278 
	C121.480446,303.250427 118.094841,299.976685 118.757599,294.310852 
	C119.333611,289.386658 122.569778,286.809662 127.167419,285.625458 
	C132.779556,284.179993 137.032730,285.557617 140.344498,290.013489 
	C140.734283,290.537903 140.959351,291.184784 141.309097,292.110443 
z"/>
<path fill="#000000" opacity="1.000000" stroke="none" 
	d="
M379.961700,245.557190 
	C372.087067,247.212051 366.993774,245.299591 363.705627,239.749451 
	C360.729675,234.726257 361.131531,228.837387 364.751373,224.424622 
	C369.618683,218.491058 378.643066,217.678268 384.296509,222.664322 
	C389.853058,227.564926 390.075226,236.837341 384.750763,242.253128 
	C383.468933,243.556946 382.117950,244.784332 379.961700,245.557190 
z"/>
<path fill="#000000" opacity="1.000000" stroke="none" 
	d="
M404.367920,321.904114 
	C401.982178,321.550262 401.297485,320.002502 400.828766,318.383423 
	C400.135162,315.987579 399.231110,314.247894 396.188812,314.137970 
	C392.739777,314.013275 391.997620,316.187683 391.380646,318.687103 
	C390.874756,320.736450 389.714722,321.881744 387.560181,321.902618 
	C384.497192,321.932281 382.265961,321.508667 383.461487,317.365082 
	C386.130127,308.116089 388.568634,298.799377 390.997925,289.483398 
	C391.753265,286.586670 393.364716,285.579865 396.349976,285.572449 
	C399.528259,285.564545 400.683167,287.070892 401.390930,289.844696 
	C403.688629,298.849243 406.011169,307.852783 408.618652,316.770569 
	C409.752533,320.648438 408.596588,322.111755 404.367920,321.904114 
z"/>
<path fill="#000000" opacity="1.000000" stroke="none" 
	d="
M241.456024,305.566040 
	C242.980377,299.883759 244.437469,294.606476 245.799744,289.304840 
	C246.483627,286.643280 248.009323,285.580231 250.806976,285.597839 
	C253.523758,285.614960 255.176804,286.447021 255.896393,289.179810 
	C258.636139,299.584412 261.458069,309.967407 264.226135,320.272369 
	C258.968384,323.074951 257.338654,322.589783 255.458511,317.568481 
	C254.587555,315.242401 253.358963,314.070496 250.735001,314.132385 
	C248.315430,314.189423 247.072708,315.269348 246.443848,317.446411 
	C246.169296,318.396912 245.888077,319.393768 245.366913,320.215515 
	C243.915222,322.504364 241.645004,322.122742 239.557770,321.571075 
	C237.263016,320.964539 237.782623,319.119446 238.216553,317.485992 
	C239.238647,313.638428 240.302567,309.801941 241.456024,305.566040 
z"/>
<path fill="#000000" opacity="1.000000" stroke="none" 
	d="
M273.283081,232.962296 
	C272.673157,239.930634 269.128052,244.110703 262.883087,245.888397 
	C258.042297,247.266388 252.032013,244.695953 248.982819,240.214279 
	C245.893600,235.673828 245.831970,229.842194 248.824051,225.197662 
	C251.678741,220.766449 257.684235,218.519302 263.314331,219.775742 
	C268.984406,221.041092 272.309570,225.296951 273.283081,232.962296 
z"/>
<path fill="#000000" opacity="1.000000" stroke="none" 
	d="
M321.256592,101.075653 
	C328.979248,104.462921 332.503601,110.236130 331.106873,116.703278 
	C329.814606,122.686623 324.472931,127.126541 318.304932,127.344078 
	C310.627350,127.614845 304.808197,122.241966 304.641296,114.728233 
	C304.454254,106.310684 309.733948,100.708138 317.894836,100.698547 
	C318.884705,100.697388 319.874725,100.856750 321.256592,101.075653 
z"/>
<path fill="#000000" opacity="1.000000" stroke="none" 
	d="
M362.653381,310.970917 
	C362.651855,306.310120 362.563721,302.141907 362.678558,297.979279 
	C362.757812,295.106750 362.278168,293.003052 358.708252,293.187317 
	C355.783508,293.338287 354.568359,291.902405 354.658051,288.905457 
	C354.755157,285.660645 356.850494,285.676422 359.099945,285.674164 
	C364.432159,285.668732 369.764954,285.717896 375.096283,285.648499 
	C377.560181,285.616425 378.861572,286.599731 378.854065,289.136719 
	C378.847321,291.418274 378.087891,293.275299 375.503204,293.123199 
	C370.643768,292.837189 370.226013,295.660126 370.350861,299.472687 
	C370.547119,305.464905 370.343567,311.469147 370.422394,317.466797 
	C370.458771,320.232544 369.667023,321.972382 366.527954,321.942932 
	C363.453217,321.914093 362.483459,320.284912 362.642487,317.463348 
	C362.754791,315.470337 362.657227,313.465454 362.653381,310.970917 
z"/>
<path fill="#000000" opacity="1.000000" stroke="none" 
	d="
M457.015625,285.652222 
	C460.166626,285.658234 462.825470,285.691254 465.483765,285.665863 
	C467.741882,285.644348 469.340912,286.190247 469.389404,288.937683 
	C469.434174,291.474548 468.797638,293.332184 465.890503,293.151337 
	C461.951294,292.906281 461.211517,294.983765 461.322876,298.389130 
	C461.518341,304.364716 461.386353,310.351196 461.375824,316.333130 
	C461.371094,319.005066 461.740906,321.841888 457.645203,321.921112 
	C453.213226,322.006836 453.649780,318.973358 453.650269,316.121796 
	C453.651306,310.139771 453.534607,304.155121 453.681122,298.176788 
	C453.758392,295.022888 453.115051,292.954620 449.382751,293.191528 
	C446.715454,293.360870 445.469696,292.049011 445.490204,289.285919 
	C445.511444,286.429443 446.909027,285.526184 449.545532,285.653625 
	C451.866028,285.765808 454.196930,285.662201 457.015625,285.652222 
z"/>
<path fill="#000000" opacity="1.000000" stroke="none" 
	d="
M149.807495,307.983582 
	C149.814331,301.684052 149.888916,295.880798 149.803894,290.079895 
	C149.758286,286.968445 150.939255,285.569550 154.202728,285.625305 
	C157.303207,285.678253 158.234695,287.186981 158.224625,289.965576 
	C158.191605,299.083282 158.193314,308.201416 158.249557,317.318970 
	C158.266357,320.041779 157.446289,321.807953 154.374542,321.871857 
	C151.291641,321.935974 149.745422,320.612488 149.819000,317.432526 
	C149.888000,314.450317 149.817780,311.464874 149.807495,307.983582 
z"/>
<path fill="#000000" opacity="1.000000" stroke="none" 
	d="
M481.728455,321.709167 
	C477.428711,322.399689 475.830475,320.695190 475.880432,316.819031 
	C475.991699,308.182373 475.921509,299.543396 475.931549,290.905365 
	C475.934845,288.077850 476.126831,285.649261 480.074890,285.602142 
	C483.926178,285.556152 484.346771,287.658417 484.321259,290.674194 
	C484.248230,299.311615 484.324066,307.950165 484.281219,316.587982 
	C484.271698,318.507874 484.712189,320.725922 481.728455,321.709167 
z"/>
<path fill="#000000" opacity="1.000000" stroke="none" 
	d="
M313.883484,187.592926 
	C308.463348,192.976593 303.304565,198.086609 298.236603,203.106659 
	C290.060516,196.744247 288.564209,178.488220 298.822296,168.348495 
	C302.486023,164.727066 306.837799,162.456284 311.728668,161.096069 
	C313.466736,160.612686 315.445343,160.522842 315.569794,162.828018 
	C315.989624,170.603592 316.702637,178.409714 315.050507,186.141785 
	C314.957123,186.578842 314.456116,186.928772 313.883484,187.592926 
z"/>
<path fill="#000000" opacity="1.000000" stroke="none" 
	d="
M303.155426,204.351471 
	C304.218567,203.249695 305.030640,202.415009 305.855469,201.593140 
	C319.862030,187.636398 319.859131,187.706268 339.686005,188.630325 
	C343.131622,188.790924 343.990723,189.953888 343.313965,193.213272 
	C339.967041,209.331833 318.508331,218.524841 304.736359,209.611542 
	C303.030426,208.507446 300.570374,207.356201 303.155426,204.351471 
z"/>
<path fill="#000000" opacity="1.000000" stroke="none" 
	d="
M325.851135,161.760956 
	C334.445770,165.122894 340.280823,170.703217 342.935425,179.236740 
	C344.363983,183.828979 343.506866,184.904861 338.660126,184.974213 
	C333.999023,185.040939 329.333588,184.860611 324.673981,184.964279 
	C321.150116,185.042664 319.470581,183.762711 319.645813,179.995728 
	C319.862213,175.343567 319.875092,170.663879 319.635315,166.013641 
	C319.395721,161.367661 321.016083,159.759872 325.851135,161.760956 
z"/>
</svg>